Coordinates
version=1
nRows=19
nColumns=33
inDegrees=yes

Units are S.I. units (second, meters, Newtons, ...)
Angles are in degrees.

endheader
time	ground_thorax_rot_x	ground_thorax_rot_y	ground_thorax_rot_z	ground_thorax_tx	ground_thorax_ty	ground_thorax_tz	clav_prot_r	clav_elev_r	scapula_abduction_r	scapula_elevation_r	scapula_upward_rot_r	scapula_winging_r	shoulder_elv_r	plane_of_elev_r	axial_rot_r	elbow_flexion_r	pro_sup_r	wrist_flex_r	wrist_dev_r	clav_prot_l	clav_elev_l	scapula_abduction_l	scapula_elevation_l	scapula_upward_rot_l	scapula_winging_l	shoulder_elv_l	plane_of_elev_l	axial_rot_l	elbow_flexion_l	pro_sup_l	wrist_flex_l	wrist_dev_l
      6.22000000	     31.11126639	     38.08901380	     39.94422430	     14.93718906	    766.55012383	    -47.22532154	     12.80267601	     35.88142446	     26.61185854	     45.00000000	    -45.00000000	    997.00598095	  -2089.14887040	     19.90232795	   -154.94869486	   1801.01884637	   -189.81719902	     11.86859526	     13.57484371	    -12.62141396	    -45.00000000	    -33.89520116	     45.00000000	    -45.00000000	  -5658.04128591	  -1365.55008522	     22.29327484	     15.87146727	   1429.55068675	     45.86888146	     11.84841203	    -14.91264430
      6.23000000	     31.18325596	     37.95474122	     39.78754028	     12.56212500	    766.97964079	    -47.05133457	     12.92574461	     35.72010007	     26.43871183	     45.00000000	    -45.00000000	    996.95280583	  -2089.07257036	     19.97276666	   -154.87956374	   1801.10254972	   -189.93920466	     11.77808029	     13.65738285	    -12.46544385	    -45.00000000	    -34.02816721	     45.00000000	    -45.00000000	  -5657.91838419	  -1365.46345072	     22.27533051	     15.76612514	   1429.50144258	     45.74254575	     11.86198667	    -14.92255183
      6.24000000	     31.44437932	     37.73062713	     39.38728649	     10.18810739	    767.45738185	    -46.86008392	     12.68061596	     36.00892426	     26.55029782	     45.00000000	    -45.00000000	    996.76481366	  -2089.03423025	     19.83833628	   -154.55805271	   1800.89153366	   -190.00654100	     11.86155725	     13.66340531	    -12.50238952	    -45.00000000	    -34.05633858	     45.00000000	    -45.00000000	  -5657.86272958	  -1365.49853678	     22.29221243	     15.84938151	   1429.56956829	     45.60198064	     11.88632364	    -14.99716961
      6.25000000	     31.54752863	     37.57033385	     39.22226020	      7.82206070	    767.98527099	    -46.65416931	     12.82219346	     35.83262234	     26.47312009	     45.00000000	    -45.00000000	    996.62436457	  -2088.95565358	     19.91114648	   -154.68666660	   1800.97204919	   -190.14852686	     11.77020268	     13.76711132	    -12.35580231	    -45.00000000	    -34.18155641	     45.00000000	    -45.00000000	  -5657.71512089	  -1365.36610070	     22.35268428	     15.91423350	   1429.51071481	     45.46334601	     11.92068206	    -15.03609764
      6.26000000	     31.56459720	     37.44882251	     39.15500754	      5.47299466	    768.56580969	    -46.43625672	     12.89429131	     35.68876706	     26.33059206	     45.00000000	    -45.00000000	    996.53207725	  -2088.87018864	     19.96119907	   -154.58933247	   1801.03834054	   -190.26888986	     11.73128235	     13.79198690	    -12.23210365	    -45.00000000	    -34.25388934	     45.00000000	    -45.00000000	  -5657.59625101	  -1365.22368918	     22.33627353	     15.79242439	   1429.45591404	     45.30588394	     11.94781337	    -15.04693338
      6.27000000	     31.69014624	     37.23941788	     38.96332549	      3.13849721	    769.20325148	    -46.20839805	     12.84222476	     35.73282603	     26.37559029	     45.00000000	    -45.00000000	    996.36529266	  -2088.82224501	     19.95095179	   -154.50790533	   1801.00767099	   -190.37215990	     11.75400834	     13.80534663	    -12.19029663	    -45.00000000	    -34.32797734	     45.00000000	    -45.00000000	  -5657.49498141	  -1365.13484685	     22.34741102	     15.88949150	   1429.41157033	     45.14843019	     11.97639461	    -15.08246125
      6.28000000	     31.86056068	     37.00416358	     38.66808109	      0.82265313	    769.90120880	    -45.97273931	     12.76534459	     35.82466968	     26.40638375	     45.00000000	    -45.00000000	    996.16703310	  -2088.76857606	     19.93919052	   -154.40780718	   1800.89202009	   -190.45686649	     11.80734845	     13.83548974	    -12.11997923	    -45.00000000	    -34.40637074	     45.00000000	    -45.00000000	  -5657.39385435	  -1365.10532712	     22.42042602	     16.02229415	   1429.44022526	     44.98593428	     12.01604284	    -15.16947924
      6.29000000	     31.90827041	     36.82334443	     38.57097263	     -1.47634753	    770.66399779	    -45.73133646	     12.85073382	     35.68976604	     26.31518581	     45.00000000	    -45.00000000	    996.10836694	  -2088.70291768	     19.98518699	   -154.49241033	   1800.99341232	   -190.57915403	     11.76796302	     13.86588489	    -12.00057055	    -45.00000000	    -34.52244936	     45.00000000	    -45.00000000	  -5657.29444924	  -1364.98539403	     22.40863310	     16.05173286	   1429.36280540	     44.82460769	     12.04744679	    -15.19229241
      6.30000000	     32.12649107	     36.54706962	     38.19200811	     -3.75805844	    771.49520688	    -45.48648394	     12.70114153	     35.90442474	     26.39078726	     45.00000000	    -45.00000000	    995.95372848	  -2088.68451148	     19.94366771	   -154.35004265	   1800.87408185	   -190.65709897	     11.84059102	     13.88015543	    -11.99144534	    -45.00000000	    -34.63850692	     45.00000000	    -45.00000000	  -5657.25049686	  -1365.04025608	     22.42987771	     16.25316786	   1429.42221810	     44.65475267	     12.06924205	    -15.28149784
      6.31000000	     32.16042312	     36.37574811	     38.08679753	     -6.02504249	    772.39682535	    -45.24106885	     12.85804432	     35.68566650	     26.32941497	     45.00000000	    -45.00000000	    995.75982710	  -2088.63425087	     20.05012916	   -154.64100402	   1800.93867246	   -190.82368601	     11.79793237	     13.95404755	    -11.86023876	    -45.00000000	    -34.73769351	     45.00000000	    -45.00000000	  -5657.09977843	  -1364.90772677	     22.53304271	     16.36297709	   1429.37442540	     44.48781783	     12.13879305	    -15.35967003
      6.32000000	     32.28469195	     36.10066597	     37.81429797	     -8.28763554	    773.37208569	    -44.99752057	     12.74075652	     35.79002223	     26.35889109	     45.00000000	    -45.00000000	    995.59412218	  -2088.60279637	     20.08374816	   -154.58610800	   1800.82808648	   -190.95038832	     11.85623344	     13.96889046	    -11.79941067	    -45.00000000	    -34.81785928	     45.00000000	    -45.00000000	  -5657.02852033	  -1364.85830706	     22.57828560	     16.59902469	   1429.36225272	     44.30993930	     12.20522353	    -15.43498405
      6.33000000	     32.33060357	     35.95332768	     37.75537778	    -10.55244010	    774.42099448	    -44.75891004	     12.85545862	     35.63585752	     26.31053492	     45.00000000	    -45.00000000	    995.48411706	  -2088.53397479	     20.09983851	   -154.76549117	   1800.94683147	   -191.15020180	     11.81703222	     13.98724380	    -11.67372132	    -45.00000000	    -34.93056059	     45.00000000	    -45.00000000	  -5656.97149269	  -1364.69282604	     22.60516853	     16.82242820	   1429.30066482	     44.12220805	     12.24847068	    -15.45547470
      6.34000000	     32.32884874	     35.77333509	     37.71721064	    -12.81806722	    775.53710002	    -44.52769151	     12.89096608	     35.54209663	     26.23097292	     45.00000000	    -45.00000000	    995.40045409	  -2088.46102271	     20.13385279	   -154.84931636	   1801.00940692	   -191.36969909	     11.79676320	     13.99078531	    -11.54232116	    -45.00000000	    -35.03084248	     45.00000000	    -45.00000000	  -5656.88254478	  -1364.57117978	     22.60933604	     16.84920317	   1429.24388486	     43.91928215	     12.30549076	    -15.47369968
      6.35000000	     32.39552943	     35.63507598	     37.55196136	    -15.08382117	    776.71437257	    -44.30490128	     12.92439330	     35.46073303	     26.13923264	     45.00000000	    -45.00000000	    995.25694722	  -2088.38318629	     20.14948689	   -154.95635921	   1801.02754177	   -191.60574991	     11.78012910	     14.02478568	    -11.42814055	    -45.00000000	    -35.11589884	     45.00000000	    -45.00000000	  -5656.81444407	  -1364.47446510	     22.67255974	     17.02085222	   1429.28382671	     43.68263767	     12.36761144	    -15.53360168
      6.36000000	     32.50918468	     35.29439107	     37.36252826	    -17.34134351	    777.94323359	    -44.09080424	     12.87956651	     35.54562086	     26.26939283	     45.00000000	    -45.00000000	    995.08031319	  -2088.40296837	     20.19878782	   -155.09650509	   1800.98962687	   -191.82768288	     11.80822639	     14.04588277	    -11.37726541	    -45.00000000	    -35.22956012	     45.00000000	    -45.00000000	  -5656.69041606	  -1364.40229706	     22.74542160	     17.33364203	   1429.20825430	     43.46441802	     12.46851187	    -15.57647457
      6.37000000	     32.58083359	     35.03960657	     37.20322014	    -19.58648637	    779.21908150	    -43.88468296	     12.87231714	     35.50600098	     26.25660677	     45.00000000	    -45.00000000	    994.94469327	  -2088.33057471	     20.23312579	   -155.15829420	   1800.93485853	   -192.03932583	     11.82147543	     14.08770636	    -11.24596699	    -45.00000000	    -35.35537050	     45.00000000	    -45.00000000	  -5656.61728072	  -1364.32514421	     22.78075256	     17.60960199	   1429.18095404	     43.22370887	     12.57028734	    -15.62732171
      6.38000000	     32.63218916	     34.82524291	     37.04617166	    -21.80850732	    780.53439065	    -43.68584596	     12.90337496	     35.43281188	     26.19769573	     45.00000000	    -45.00000000	    994.80519946	  -2088.26446312	     20.27825830	   -155.24852459	   1800.93066675	   -192.26076169	     11.80793722	     14.13470260	    -11.12467193	    -45.00000000	    -35.47508917	     45.00000000	    -45.00000000	  -5656.55192222	  -1364.22056513	     22.84633905	     17.85608899	   1429.17397215	     42.96130894	     12.65035722	    -15.65621972
      6.39000000	     32.68990884	     34.56512004	     36.88840498	    -24.00746647	    781.88903564	    -43.49335984	     12.91690700	     35.38387448	     26.17276497	     45.00000000	    -45.00000000	    994.68545682	  -2088.20194557	     20.31937434	   -155.41425125	   1800.91655585	   -192.49045379	     11.79429537	     14.18903700	    -11.01952570	    -45.00000000	    -35.60130491	     45.00000000	    -45.00000000	  -5656.47785311	  -1364.13904012	     22.89990827	     18.11667183	   1429.16093633	     42.68344045	     12.74408339	    -15.68900798
      6.40000000	     32.75677295	     34.29439456	     36.73207488	    -26.18063849	    783.28070004	    -43.30717156	     12.88611859	     35.41379433	     26.21829373	     45.00000000	    -45.00000000	    994.51131871	  -2088.18235755	     20.33902253	   -155.50838536	   1800.88708563	   -192.70240169	     11.81059154	     14.21977741	    -10.94393658	    -45.00000000	    -35.70003204	     45.00000000	    -45.00000000	  -5656.38862779	  -1364.04643228	     22.98070859	     18.46092349	   1429.13019154	     42.41759870	     12.84353797	    -15.71582737
